<svg version="1.1" id="Layer_1" xmlns="http://www.w3.org/2000/svg" xmlns:xlink="http://www.w3.org/1999/xlink" x="0px" y="0px"
	 width="100%" viewBox="0 0 75 89" enable-background="new 0 0 75 89" xml:space="preserve">
<path fill="#000000" opacity="1.000000" stroke="none" 
	d="
M1.000000,65.000000 
	C1.000000,43.766441 1.000000,22.532885 1.000000,1.000000 
	C10.685510,1.000000 20.374098,1.000000 30.420612,1.336210 
	C29.456112,2.494464 28.144722,3.334924 26.809231,4.135167 
	C22.468441,6.736221 18.622023,9.247127 16.470974,14.623885 
	C13.507509,22.031355 17.534990,27.700754 19.197868,34.379158 
	C23.487427,46.002373 29.007935,49.814240 39.975048,48.962059 
	C47.713684,48.360737 53.108620,42.672325 55.263756,32.681732 
	C55.974644,29.412848 56.453465,26.476028 57.058113,23.565348 
	C58.827599,15.047318 56.668167,8.089035 49.205837,3.099474 
	C48.604710,2.697543 48.392784,1.713525 48.000000,1.000000 
	C57.291897,1.000000 66.583794,1.000000 76.000000,1.000000 
	C76.000000,24.354095 76.000000,47.708389 75.748901,71.871307 
	C74.725929,71.645920 73.557121,70.717102 73.250404,69.559807 
	C71.868492,64.345680 67.762428,62.461483 63.619896,59.669006 
	C55.242722,54.021950 46.841309,51.240417 36.628799,51.741215 
	C29.579512,52.086903 23.702410,53.859818 17.764093,57.446602 
	C12.555511,60.592621 6.616423,62.529205 1.000000,65.000000 
z"/>
<path fill="#0443F7" opacity="1.000000" stroke="none" 
	d="
M1.000000,65.468674 
	C6.616423,62.529205 12.555511,60.592621 17.764093,57.446602 
	C23.702410,53.859818 29.579512,52.086903 36.628799,51.741215 
	C46.841309,51.240417 55.242722,54.021950 63.619896,59.669006 
	C67.762428,62.461483 71.868492,64.345680 73.250404,69.559807 
	C73.557121,70.717102 74.725929,71.645920 75.748901,72.339966 
	C76.000000,77.977669 76.000000,83.955338 76.000000,89.966507 
	C51.115417,89.966507 26.230783,89.966507 1.000000,89.966507 
	C1.000000,81.982437 1.000000,73.959900 1.000000,65.468674 
z"/>
<path fill="#0E0E0E" opacity="1.000000" stroke="none" 
	d="
M47.532394,1.000000 
	C48.392784,1.713525 48.604710,2.697543 49.205837,3.099474 
	C56.668167,8.089035 58.827599,15.047318 57.058113,23.565348 
	C56.453465,26.476028 55.974644,29.412848 55.010719,32.452805 
	C51.887280,29.495264 49.765381,25.105642 46.374504,23.627939 
	C39.601723,20.676441 32.315357,23.079374 25.885885,25.718674 
	C22.965212,26.917610 21.302326,31.180592 19.068886,34.053669 
	C17.534990,27.700754 13.507509,22.031355 16.470974,14.623885 
	C18.622023,9.247127 22.468441,6.736221 26.809231,4.135167 
	C28.144722,3.334924 29.456112,2.494464 30.889269,1.336210 
	C36.354931,1.000000 41.709858,1.000000 47.532394,1.000000 
z"/>
<path fill="#362513" opacity="1.000000" stroke="none" 
	d="
M19.197868,34.379158 
	C21.302326,31.180592 22.965212,26.917610 25.885885,25.718674 
	C32.315357,23.079374 39.601723,20.676441 46.374504,23.627939 
	C49.765381,25.105642 51.887280,29.495264 54.836147,32.796814 
	C53.108620,42.672325 47.713684,48.360737 39.975048,48.962059 
	C29.007935,49.814240 23.487427,46.002373 19.197868,34.379158 
z"/>
</svg>